<svg xmlns="http://www.w3.org/2000/svg" xmlns:xlink="http://www.w3.org/1999/xlink" width="2458" zoomAndPan="magnify" viewBox="0 0 1843.5 383.999986" height="512" preserveAspectRatio="xMidYMid meet" version="1.0"><defs><g/><clipPath id="ae32a2f160"><path d="M 0 0.0507812 L 1843 0.0507812 L 1843 383.945312 L 0 383.945312 Z M 0 0.0507812 " clip-rule="nonzero"/></clipPath></defs><g clip-path="url(#ae32a2f160)"><path fill="#ffffff" d="M 0 0.0507812 L 1843 0.0507812 L 1843 383.949219 L 0 383.949219 Z M 0 0.0507812 " fill-opacity="1" fill-rule="nonzero"/><path fill="#ffffff" d="M 0 0.0507812 L 1843 0.0507812 L 1843 383.949219 L 0 383.949219 Z M 0 0.0507812 " fill-opacity="1" fill-rule="nonzero"/></g><g fill="#574487" fill-opacity="1"><g transform="translate(-4.86198, 281.60286)"><g><path d="M 112.6875 -82.75 L 162.453125 -82.75 L 162.453125 -16.046875 C 154.453125 -9.984375 145.125 -5.265625 134.46875 -1.890625 C 123.820312 1.472656 112.644531 3.15625 100.9375 3.15625 C 83.664062 3.15625 67.957031 -0.96875 53.8125 -9.21875 C 39.664062 -17.476562 28.53125 -28.660156 20.40625 -42.765625 C 12.28125 -56.867188 8.21875 -72.300781 8.21875 -89.0625 C 8.21875 -105.988281 12.28125 -121.484375 20.40625 -135.546875 C 28.53125 -149.609375 39.664062 -160.703125 53.8125 -168.828125 C 67.957031 -176.960938 83.664062 -181.03125 100.9375 -181.03125 C 112.300781 -181.03125 123.097656 -179.175781 133.328125 -175.46875 C 143.566406 -171.757812 152.726562 -166.492188 160.8125 -159.671875 L 130.125 -119.640625 C 125.988281 -122.835938 121.394531 -125.445312 116.34375 -127.46875 C 111.289062 -129.488281 106.15625 -130.5 100.9375 -130.5 C 94.113281 -130.5 87.691406 -128.664062 81.671875 -125 C 75.648438 -121.332031 70.804688 -116.320312 67.140625 -109.96875 C 63.472656 -103.613281 61.640625 -96.601562 61.640625 -88.9375 C 61.640625 -81.1875 63.472656 -74.003906 67.140625 -67.390625 C 70.804688 -60.785156 75.671875 -55.546875 81.734375 -51.671875 C 87.796875 -47.796875 94.195312 -45.859375 100.9375 -45.859375 C 105.488281 -45.859375 109.40625 -46.195312 112.6875 -46.875 Z M 112.6875 -82.75 "/></g></g></g><g fill="#574487" fill-opacity="1"><g transform="translate(167.957111, 281.60286)"><g><path d="M 168.140625 0 L 108.765625 0 L 82.875 -54.703125 L 68.59375 -54.703125 L 68.59375 0 L 15.921875 0 L 15.921875 -177.484375 L 94.75 -177.484375 C 107.039062 -177.484375 117.988281 -174.875 127.59375 -169.65625 C 137.195312 -164.4375 144.671875 -157.171875 150.015625 -147.859375 C 155.359375 -138.554688 158.03125 -127.96875 158.03125 -116.09375 C 158.03125 -105.226562 155.863281 -95.835938 151.53125 -87.921875 C 147.195312 -80.003906 141.15625 -73.476562 133.40625 -68.34375 Z M 68.59375 -129.984375 L 68.59375 -100.6875 L 89.8125 -100.6875 C 92.507812 -100.6875 94.992188 -101.398438 97.265625 -102.828125 C 99.546875 -104.265625 101.335938 -106.160156 102.640625 -108.515625 C 103.941406 -110.867188 104.59375 -113.351562 104.59375 -115.96875 C 104.59375 -120.4375 103.140625 -123.890625 100.234375 -126.328125 C 97.335938 -128.765625 94.035156 -129.984375 90.328125 -129.984375 Z M 68.59375 -129.984375 "/></g></g></g><g fill="#574487" fill-opacity="1"><g transform="translate(337.365324, 281.60286)"><g><path d="M 100.9375 3.28125 C 83.664062 3.28125 67.957031 -0.863281 53.8125 -9.15625 C 39.664062 -17.457031 28.53125 -28.679688 20.40625 -42.828125 C 12.28125 -56.972656 8.21875 -72.425781 8.21875 -89.1875 C 8.21875 -106.03125 12.28125 -121.460938 20.40625 -135.484375 C 28.53125 -149.503906 39.664062 -160.597656 53.8125 -168.765625 C 67.957031 -176.941406 83.664062 -181.03125 100.9375 -181.03125 C 118.03125 -181.03125 133.628906 -176.941406 147.734375 -168.765625 C 161.847656 -160.597656 172.96875 -149.503906 181.09375 -135.484375 C 189.21875 -121.460938 193.28125 -106.03125 193.28125 -89.1875 C 193.28125 -72.425781 189.21875 -56.972656 181.09375 -42.828125 C 172.96875 -28.679688 161.847656 -17.457031 147.734375 -9.15625 C 133.628906 -0.863281 118.03125 3.28125 100.9375 3.28125 Z M 100.9375 -47.25 C 107.757812 -47.25 114.160156 -49.097656 120.140625 -52.796875 C 126.117188 -56.503906 130.894531 -61.535156 134.46875 -67.890625 C 138.050781 -74.253906 139.84375 -81.3125 139.84375 -89.0625 C 139.84375 -96.726562 138.03125 -103.738281 134.40625 -110.09375 C 130.789062 -116.457031 125.992188 -121.46875 120.015625 -125.125 C 114.035156 -128.789062 107.675781 -130.625 100.9375 -130.625 C 94.113281 -130.625 87.691406 -128.789062 81.671875 -125.125 C 75.648438 -121.46875 70.804688 -116.457031 67.140625 -110.09375 C 63.472656 -103.738281 61.640625 -96.726562 61.640625 -89.0625 C 61.640625 -81.394531 63.472656 -74.359375 67.140625 -67.953125 C 70.804688 -61.554688 75.648438 -56.503906 81.671875 -52.796875 C 87.691406 -49.097656 94.113281 -47.25 100.9375 -47.25 Z M 100.9375 -47.25 "/></g></g></g><g fill="#574487" fill-opacity="1"><g transform="translate(538.86124, 281.60286)"><g><path d="M 112.3125 0 L 67.578125 0 L 1.015625 -177.484375 L 57.609375 -177.484375 L 90.828125 -74.40625 L 120.515625 -177.484375 L 176.359375 -177.484375 L 156.765625 -115.71875 L 168.78125 -74.53125 L 201.375 -177.484375 L 258.09375 -177.484375 L 190.625 0 L 146.421875 0 L 129.734375 -47.25 Z M 112.3125 0 "/></g></g></g><g fill="#574487" fill-opacity="1"><g transform="translate(797.96352, 281.60286)"><g><path d="M 105.734375 0 L 52.9375 0 L 52.9375 -128.46875 L 8.078125 -128.46875 L 8.078125 -177.484375 L 150.578125 -177.484375 L 150.578125 -128.46875 L 105.734375 -128.46875 Z M 105.734375 0 "/></g></g></g><g fill="#574487" fill-opacity="1"><g transform="translate(956.63364, 281.60286)"><g><path d="M 68.59375 0 L 15.921875 0 L 15.921875 -177.484375 L 68.59375 -177.484375 L 68.59375 -118.625 L 121.53125 -118.625 L 121.53125 -177.484375 L 174.203125 -177.484375 L 174.203125 0 L 121.53125 0 L 121.53125 -68.21875 L 68.59375 -68.21875 Z M 68.59375 0 "/></g></g></g><g fill="#326eac" fill-opacity="1"><g transform="translate(1146.767034, 281.60286)"><g><path d="M 100.9375 3.28125 C 83.664062 3.28125 67.957031 -0.863281 53.8125 -9.15625 C 39.664062 -17.457031 28.53125 -28.679688 20.40625 -42.828125 C 12.28125 -56.972656 8.21875 -72.425781 8.21875 -89.1875 C 8.21875 -106.03125 12.28125 -121.460938 20.40625 -135.484375 C 28.53125 -149.503906 39.664062 -160.597656 53.8125 -168.765625 C 67.957031 -176.941406 83.664062 -181.03125 100.9375 -181.03125 C 112.21875 -181.03125 122.953125 -179.195312 133.140625 -175.53125 C 143.335938 -171.863281 152.519531 -166.625 160.6875 -159.8125 L 131 -119.640625 C 127.039062 -122.753906 122.34375 -125.363281 116.90625 -127.46875 C 111.476562 -129.570312 106.15625 -130.625 100.9375 -130.625 C 94.113281 -130.625 87.691406 -128.789062 81.671875 -125.125 C 75.648438 -121.46875 70.804688 -116.457031 67.140625 -110.09375 C 63.472656 -103.738281 61.640625 -96.726562 61.640625 -89.0625 C 61.640625 -81.394531 63.472656 -74.359375 67.140625 -67.953125 C 70.804688 -61.554688 75.648438 -56.503906 81.671875 -52.796875 C 87.691406 -49.097656 94.113281 -47.25 100.9375 -47.25 C 106.75 -47.25 111.84375 -48.023438 116.21875 -49.578125 C 120.601562 -51.140625 125.65625 -54.109375 131.375 -58.484375 L 160.6875 -18.0625 C 152.601562 -11.238281 143.441406 -5.972656 133.203125 -2.265625 C 122.972656 1.429688 112.21875 3.28125 100.9375 3.28125 Z M 100.9375 3.28125 "/></g></g></g><g fill="#326eac" fill-opacity="1"><g transform="translate(1311.879992, 281.60286)"><g><path d="M 68.59375 0 L 15.921875 0 L 15.921875 -177.484375 L 68.59375 -177.484375 L 68.59375 -118.625 L 121.53125 -118.625 L 121.53125 -177.484375 L 174.203125 -177.484375 L 174.203125 0 L 121.53125 0 L 121.53125 -68.21875 L 68.59375 -68.21875 Z M 68.59375 0 "/></g></g></g><g fill="#326eac" fill-opacity="1"><g transform="translate(1502.00624, 281.60286)"><g><path d="M 181.65625 0 L 127.34375 0 L 119.765625 -23.625 L 62.90625 -23.625 L 55.328125 0 L 1.015625 0 L 68.59375 -177.75 L 114.453125 -177.75 Z M 89.0625 -105.484375 L 76.8125 -67.328125 L 105.859375 -67.328125 L 93.734375 -105.484375 L 91.59375 -114.828125 L 91.078125 -114.828125 Z M 89.0625 -105.484375 "/></g></g></g><g fill="#326eac" fill-opacity="1"><g transform="translate(1684.679052, 281.60286)"><g><path d="M 105.734375 0 L 52.9375 0 L 52.9375 -128.46875 L 8.078125 -128.46875 L 8.078125 -177.484375 L 150.578125 -177.484375 L 150.578125 -128.46875 L 105.734375 -128.46875 Z M 105.734375 0 "/></g></g></g></svg>